<?xml version="1.0" encoding="UTF-8" standalone="no"?>
<!-- Created with Inkscape (http://www.inkscape.org/) -->

<svg
   xmlns:dc="http://purl.org/dc/elements/1.1/"
   xmlns:cc="http://creativecommons.org/ns#"
   xmlns:rdf="http://www.w3.org/1999/02/22-rdf-syntax-ns#"
   xmlns:svg="http://www.w3.org/2000/svg"
   xmlns="http://www.w3.org/2000/svg"
   xmlns:sodipodi="http://sodipodi.sourceforge.net/DTD/sodipodi-0.dtd"
   xmlns:inkscape="http://www.inkscape.org/namespaces/inkscape"
   version="1.1"
   id="svg2"
   xml:space="preserve"
   width="287.08801"
   height="146.854"
   viewBox="0 0 287.08801 146.854"
   sodipodi:docname="geomar_logo_kurz_2c_plus_protected_area.svg"
   inkscape:version="0.92.3 (unknown)"><metadata
     id="metadata8"><rdf:RDF><cc:Work
         rdf:about=""><dc:format>image/svg+xml</dc:format><dc:type
           rdf:resource="http://purl.org/dc/dcmitype/StillImage" /><dc:title></dc:title></cc:Work></rdf:RDF></metadata><defs
     id="defs6" /><sodipodi:namedview
     pagecolor="#ffffff"
     bordercolor="#666666"
     borderopacity="1"
     objecttolerance="10"
     gridtolerance="10"
     guidetolerance="10"
     inkscape:pageopacity="0"
     inkscape:pageshadow="2"
     inkscape:window-width="1861"
     inkscape:window-height="1176"
     id="namedview4"
     showgrid="false"
     fit-margin-top="0"
     fit-margin-left="0"
     fit-margin-right="0"
     fit-margin-bottom="0"
     inkscape:zoom="1.5444564"
     inkscape:cx="117.19334"
     inkscape:cy="47.073333"
     inkscape:window-x="1979"
     inkscape:window-y="24"
     inkscape:window-maximized="1"
     inkscape:current-layer="g10" /><g
     id="g10"
     inkscape:groupmode="layer"
     inkscape:label="ink_ext_XXXXXX"
     transform="matrix(1.3333333,0,0,-1.3333333,0,146.854)"><g
       id="g850"
       transform="translate(19.765394,19.765628)"><g
         transform="scale(0.1)"
         id="g12"><path
           inkscape:connector-curvature="0"
           id="path14"
           style="fill:#1476c6;fill-opacity:1;fill-rule:nonzero;stroke:none"
           d="m 1514.82,687.793 c -129.59,40.039 -245.31,7.52 -254.59,-31.934 -14.74,-62.988 80.38,-104.101 135.16,-122.363 8.2,24.121 16.5,45.996 24.61,65.234 -39.36,12.403 -104.2,37.989 -94.92,70.02 8.59,30.176 81.35,29.883 132.03,21.387 4,-0.879 8.1,-1.66 12.11,-2.637 176.17,-42.187 272.66,-214.453 230.37,-389.844 C 1657.21,122.168 1492.07,14.1602 1315.9,56.3477 c -7.62,1.8554 -24.32,6.7382 -25.2,7.0312 -0.09,-0.5859 -0.39,-3.125 0.78,-4.0039 17.19,-7.3242 27.45,-11.2305 51.86,-16.8945 C 1522.73,0 1705.45,112.012 1748.52,290.332 c 42.09,174.219 -62.11,349.219 -233.7,397.461" /><path
           inkscape:connector-curvature="0"
           id="path16"
           style="fill:#1476c6;fill-opacity:1;fill-rule:nonzero;stroke:none"
           d="m 1354.77,393.359 c 5.95,24.414 12.3,48.047 18.75,70.508 -131.16,47.949 -162.7,106.543 -166.7,143.653 -2.84,27.05 19.04,49.707 19.04,49.707 -30.57,-20.411 -57.23,-41.211 -60.45,-59.766 -18.95,-110.938 114.26,-176.758 189.36,-204.102" /><path
           inkscape:connector-curvature="0"
           id="path18"
           style="fill:#1476c6;fill-opacity:1;fill-rule:nonzero;stroke:none"
           d="m 1337.87,319.824 c -136.82,51.953 -193.36,119.141 -213.38,183.301 -10.54,33.887 1.86,63.77 1.86,63.77 -24.22,-35.645 -36.33,-72.461 -36.33,-72.461 -2.25,-7.227 -1.95,-36.036 5.27,-56.739 33.99,-98.535 146.1,-160.84 229.98,-191.406 3.42,22.266 7.62,49.121 12.6,73.535" /><path
           inkscape:connector-curvature="0"
           id="path20"
           style="fill:#241d10;fill-opacity:1;fill-rule:nonzero;stroke:none"
           d="m 412.781,98.9258 c 0,-31.543 22.461,-59.1797 55.664,-59.1797 34.668,0 54.985,30.4687 54.985,58.9844 0,29.0035 -20.317,59.2775 -55.176,59.2775 -34.184,0 -55.473,-28.516 -55.473,-58.7892 z M 369.23,97.4609 c 0,60.9371 46.383,100.3911 98.829,100.3911 56.929,0 98.828,-44.727 98.828,-98.9262 C 566.887,44.8242 525.188,0 467.766,0 410.051,0 369.23,46.0938 369.23,97.168 v 0.2929" /><path
           inkscape:connector-curvature="0"
           id="path22"
           style="fill:#241d10;fill-opacity:1;fill-rule:nonzero;stroke:none"
           d="M 89.9414,107.813 H 168.262 V 11.1328 C 145.703,5.66406 126.953,3.32031 106.152,3.32031 74.4141,3.32031 50.6836,10.0586 32.0313,24.0234 11.1328,40.1367 0,65.2344 0,95.7031 c 0,59.7659 43.1641,99.0239 108.496,99.0239 20.801,0 38.379,-3.418 59.277,-11.719 v -40.039 c -18.457,10.156 -34.57,14.355 -55.175,14.355 -41.3089,0 -67.0902,-23.437 -67.0902,-61.1326 0,-35.9375 22.168,-56.9336 59.5702,-56.9336 7.227,0 14.551,0.3906 21.582,1.5625 V 71.0938 H 89.9414 v 36.7192" /><path
           inkscape:connector-curvature="0"
           id="path24"
           style="fill:#241d10;fill-opacity:1;fill-rule:nonzero;stroke:none"
           d="m 217.188,191.016 h 118.847 v -36.621 h -75.39 V 118.75 h 73.339 V 82.1289 H 260.645 V 42.4805 h 76.953 V 5.85938 H 217.188 V 191.016" /><path
           inkscape:connector-curvature="0"
           id="path26"
           style="fill:#241d10;fill-opacity:1;fill-rule:nonzero;stroke:none"
           d="m 1104.47,108.301 c 4.89,-0.977 8.01,-0.977 11.62,-0.977 28.42,0 39.55,7.031 39.55,25 0,17.481 -11.42,25.879 -34.37,25.879 -3.61,0 -7.81,0 -12.11,0.391 l -4.69,-0.391 z m -41.7,82.031 4.2,0.293 c 16.6,1.27 36.43,1.855 50.49,1.855 27.83,0 45.02,-3.71 58.5,-13.378 14.55,-9.864 22.85,-26.758 22.85,-45.997 0,-23.925 -10.65,-40.0386 -33.79,-50.7808 5.27,-7.7148 9.67,-13.9648 17.19,-23.9258 14.25,-19.1406 30.17,-38.9648 40.33,-50.48824 l 2.34,-2.53907 c 0,0 -45.5,-9.47265 -61.91,11.42581 -16.99,21.582 -26.86,36.914 -37.99,54.8828 l -2.15,3.418 c -2.83,0 -5.17,0 -6.74,0 -1.75,0 -4.68,0 -8,0.1953 h -3.62 V 5.85938 h -41.7 V 190.332" /><path
           inkscape:connector-curvature="0"
           id="path28"
           style="fill:#241d10;fill-opacity:1;fill-rule:nonzero;stroke:none"
           d="m 825.867,15.1367 c -1.363,27.5391 -2.051,41.6016 -3.418,62.8906 -0.777,11.2305 -1.558,22.9497 -2.636,35.1567 -0.782,12.5 -1.266,19.238 -2.047,27.05 l -3.911,44.532 -0.781,7.031 h -47.066 c -12.602,0 -15.918,-2.93 -21.977,-19.531 -8.203,-22.364 -20.703,-70.899 -25.879,-90.6254 l -8.297,-34.375 -8.3,34.375 c -5.278,19.7264 -17.778,68.2614 -26.075,90.6254 -5.96,16.601 -9.375,19.531 -21.875,19.531 h -47.074 l -0.777,-7.031 -3.906,-44.532 c -0.785,-7.812 -1.274,-14.55 -2.051,-27.05 -1.074,-12.207 -1.859,-23.9262 -2.641,-35.1567 -1.265,-21.289 -2.051,-35.3515 -3.316,-62.8906 l -0.586,-9.17967 h 40.332 l 0.293,4.78517 c 0.777,22.4609 1.559,41.1133 3.418,74.6094 1.758,35.6444 2.246,51.9534 2.246,65.3324 0,5.175 0.191,7.226 0.191,8.593 1.86,-5.761 3.711,-11.132 5.278,-16.894 1.558,-5.567 3.609,-12.305 4.199,-14.063 l 7.809,-25 c 3.125,-10.1559 6.449,-21.2887 12.5,-41.4059 5.175,-17.3828 10.16,-34.8633 14.066,-48.3399 l 2.051,-7.61717 h 24.121 0.097 24.122 l 2.046,7.61717 c 4.004,13.4766 8.887,30.9571 14.067,48.3399 6.055,20.1172 9.375,31.25 12.5,41.4059 l 7.808,25 c 0.586,1.758 2.637,8.496 4.106,14.063 1.656,5.762 3.516,11.133 5.367,16.894 0,-1.367 0.102,-3.418 0.102,-8.593 0,-13.379 0.488,-29.688 2.437,-65.3324 1.762,-33.4961 2.539,-52.1485 3.32,-74.6094 l 0.293,-4.78517 h 40.332 l -0.488,9.17967" /><path
           inkscape:connector-curvature="0"
           id="path30"
           style="fill:#241d10;fill-opacity:1;fill-rule:nonzero;stroke:none"
           d="m 943.645,89.6484 v 0 H 921.77 l 2.632,7.5196 c 0,0 15.532,42.871 19.243,55.957 v 0 0 0 0 c 3.71,-13.086 19.335,-55.957 19.335,-55.957 l 2.54,-7.5196 z m 93.345,-75.9765 c -8.3,24.0234 -20.31,54.1015 -34.76,89.4531 -6.546,15.137 -12.308,28.906 -17.972,41.699 -1.856,4.395 -3.711,8.789 -10.645,24.121 l -3.711,8.399 -3.601,8.008 -2.934,6.25 h -19.722 v 0 h -19.727 l -2.934,-6.25 -3.613,-8.008 -3.609,-8.399 C 906.73,153.613 904.871,149.219 903.113,144.824 897.355,132.031 891.594,118.262 885.145,103.125 870.598,67.7734 858.586,37.6953 850.281,13.6719 l -2.832,-7.81252 h 44.731 l 1.265,4.68752 c 4.106,12.207 8.301,23.9258 13.774,39.7461 l 1.558,4.7851 h 34.868 v 0 h 34.851 l 1.563,-4.7851 c 5.468,-15.8203 9.668,-27.5391 13.867,-39.7461 l 1.269,-4.68752 h 44.625 l -2.83,7.81252" /></g></g></g></svg>